<svg xmlns="http://www.w3.org/2000/svg" xmlns:xlink="http://www.w3.org/1999/xlink" width="62px" height="62px" viewBox="0 0 62 62"><title>agroalimentaire</title><desc>Created with Sketch.</desc><defs><polygon id="path-1" points="0.0004 0.4584 61.542 0.4584 61.542 62 0.0004 62"></polygon></defs><g id="Page-1" stroke="none" stroke-width="1" fill="none" fill-rule="evenodd"><g id="agroalimentaire" transform="translate(0.000000, -1.000000)"><path d="M8.8104,22.3881 L5.8644,22.6291 L8.0094,24.6631 L8.8104,22.3881 Z M9.2804,22.3481 L8.3514,24.9891 L9.4174,26.0021 L9.2344,26.5251 L5.2564,22.6901 L5.4304,22.1961 L10.9324,21.6971 L10.7474,22.2251 L9.2804,22.3481 Z" id="Fill-1" fill="#000000"></path><g id="Group-63" transform="translate(0.000000, 0.542400)"><path d="M10.6591,16.8662 L10.9221,16.4292 L12.5631,17.4192 C12.6811,18.0442 12.5171,18.7332 12.1581,19.3292 C11.3681,20.6392 9.8611,21.0382 8.6011,20.2782 C7.3411,19.5182 6.9901,18.0002 7.7841,16.6832 C8.1771,16.0322 8.7271,15.5932 9.3681,15.4602 L9.4871,15.9172 C8.9121,16.0642 8.5051,16.4062 8.2011,16.9102 C7.5591,17.9742 7.8451,19.2112 8.8721,19.8302 C9.8921,20.4452 11.1261,20.1242 11.7631,19.0662 C12.0121,18.6542 12.1491,18.2182 12.1101,17.7412 L10.6591,16.8662 Z" id="Fill-2" fill="#000000"></path><path d="M13.4462,12.4248 C12.8582,11.8768 12.1602,11.9518 11.4742,12.6878 L10.5632,13.6638 L12.4072,15.3818 L13.3172,14.4048 C14.0032,13.6698 14.0232,12.9628 13.4462,12.4248 L13.4462,12.4248 Z M15.8812,14.6548 L13.9162,14.3948 C13.8392,14.4978 13.7562,14.5978 13.6582,14.7028 L12.7382,15.6908 L13.9032,16.7768 L13.5412,17.1658 L9.8662,13.7388 L11.1482,12.3628 C12.0192,11.4288 13.0202,11.3028 13.8082,12.0358 C14.3852,12.5748 14.5062,13.2568 14.1802,13.9528 L16.2772,14.2308 L15.8812,14.6548 Z" id="Fill-4" fill="#000000"></path><path d="M18.6825,9.4717 C18.0015,8.4857 16.7615,8.2677 15.7695,8.9527 C14.7715,9.6417 14.5285,10.8827 15.2085,11.8677 C15.8895,12.8557 17.1355,13.0687 18.1335,12.3797 C19.1265,11.6947 19.3635,10.4577 18.6825,9.4717 M14.7785,12.1657 C13.9465,10.9607 14.2475,9.4267 15.5005,8.5627 C16.7415,7.7067 18.2845,7.9587 19.1195,9.1697 C19.9555,10.3807 19.6435,11.9127 18.4035,12.7697 C17.1505,13.6337 15.6095,13.3717 14.7785,12.1657" id="Fill-6" fill="#000000"></path><path d="M22.954,8.3926 L20.812,6.3546 L20.723,9.3096 L22.954,8.3926 Z M23.297,8.7176 L20.707,9.7816 L20.659,11.2526 L20.147,11.4616 L20.363,5.9406 L20.849,5.7416 L24.883,9.5176 L24.365,9.7306 L23.297,8.7176 Z" id="Fill-8" fill="#000000"></path><polygon id="Fill-10" fill="#000000" points="23.954 4.6875 24.474 4.5775 25.424 9.0415 28.176 8.4555 28.271 8.9045 25 9.6005"></polygon><polygon id="Fill-12" fill="#000000" points="28.0243 3.9697 28.5533 3.9187 29.0293 8.9227 28.5003 8.9737"></polygon><polygon id="Fill-14" fill="#000000" points="35.495 4.0879 35.126 9.0999 34.617 9.0629 34.913 5.0529 32.695 8.2799 32.444 8.2619 30.723 4.7659 30.429 8.7539 29.92 8.7159 30.29 3.7039 30.726 3.7359 32.629 7.6129 35.058 4.0559"></polygon><polygon id="Fill-16" fill="#000000" points="39.4589 9.9863 39.3219 10.4243 35.9299 9.3693 37.4229 4.5703 40.7129 5.5933 40.5759 6.0333 37.7929 5.1673 37.2629 6.8743 39.7439 7.6453 39.6089 8.0783 37.1279 7.3053 36.5729 9.0883"></polygon><polygon id="Fill-18" fill="#000000" points="45.8759 8.2549 43.4299 12.6439 43.0479 12.4309 42.2109 7.2969 40.2259 10.8589 39.7619 10.5999 42.2079 6.2099 42.5909 6.4239 43.4339 11.5619 45.4179 7.9999"></polygon><polygon id="Fill-20" fill="#000000" points="47.7841 10.3408 46.4331 9.2038 46.7281 8.8528 49.8381 11.4668 49.5431 11.8188 48.1911 10.6818 45.2541 14.1768 44.8471 13.8348"></polygon><path d="M49.7714,16.336 L51.0404,13.666 L48.2044,14.503 L49.7714,16.336 Z M49.5694,16.764 L47.7504,14.636 L46.3384,15.049 L45.9794,14.629 L51.2924,13.11 L51.6324,13.509 L49.3044,18.52 L48.9414,18.094 L49.5694,16.764 Z" id="Fill-22" fill="#000000"></path><polygon id="Fill-24" fill="#000000" points="53.4852 15.9912 53.7732 16.4372 49.5522 19.1662 49.2632 18.7202"></polygon><path d="M54.5292,21.6084 C55.2582,21.2664 55.4472,20.5904 55.0202,19.6814 L54.4532,18.4724 L52.1722,19.5444 L52.7392,20.7524 C53.1672,21.6624 53.8142,21.9444 54.5292,21.6084 L54.5292,21.6084 Z M51.5522,23.0384 L52.5262,21.3114 C52.4592,21.2014 52.3972,21.0874 52.3362,20.9574 L51.7622,19.7354 L50.3202,20.4134 L50.0942,19.9314 L54.6432,17.7964 L55.4422,19.4994 C55.9852,20.6564 55.7302,21.6314 54.7562,22.0894 C54.0412,22.4244 53.3632,22.2834 52.8382,21.7214 L51.8002,23.5644 L51.5522,23.0384 Z" id="Fill-26" fill="#000000"></path><polygon id="Fill-28" fill="#000000" points="53.1884 27.3194 52.7434 27.4304 51.8794 23.9824 56.7554 22.7624 57.5924 26.1064 57.1474 26.2174 56.4394 23.3894 54.7044 23.8234 55.3354 26.3454 54.8964 26.4554 54.2654 23.9334 52.4554 24.3864"></polygon><path d="M4.5487,30.5557 C4.5477,29.6647 5.2687,28.9417 6.1587,28.9397 C7.0507,28.9387 7.7747,29.6597 7.7757,30.5507 C7.7777,31.4417 7.0557,32.1647 6.1647,32.1657 C5.2747,32.1677 4.5507,31.4477 4.5487,30.5557" id="Fill-30" fill="#000000"></path><path d="M53.8007,30.7383 C53.7997,29.8473 54.5207,29.1243 55.4117,29.1223 C56.3027,29.1213 57.0267,29.8423 57.0287,30.7333 C57.0297,31.6243 56.3087,32.3473 55.4167,32.3493 C54.5267,32.3503 53.8027,31.6303 53.8007,30.7383" id="Fill-32" fill="#000000"></path><g id="Group-36"><mask id="mask-2" fill="white"><use xlink:href="#path-1"></use></mask><g id="Clip-35"></g><path d="M30.7714,1.6084 C14.4384,1.6084 1.1514,14.8954 1.1514,31.2284 C1.1514,47.5614 14.4384,60.8484 30.7714,60.8484 C47.1044,60.8484 60.3914,47.5614 60.3914,31.2284 C60.3914,14.8954 47.1044,1.6084 30.7714,1.6084 M30.7714,62.0004 C13.8034,62.0004 0.0004,48.1964 0.0004,31.2284 C0.0004,14.2614 13.8034,0.4584 30.7714,0.4584 C47.7384,0.4584 61.5424,14.2614 61.5424,31.2284 C61.5424,48.1964 47.7384,62.0004 30.7714,62.0004" id="Fill-34" fill="#000000" mask="url(#mask-2)"></path></g><path d="M25.7704,22.4785 C25.9674,22.9115 26.2224,23.4155 26.4804,23.9315 C26.7154,24.3985 26.9654,24.8795 27.2394,25.3655 C26.7624,25.0525 26.3724,24.6255 26.1004,24.1245 C25.8584,23.6115 25.7454,23.0455 25.7704,22.4785 M27.3794,26.1275 L28.5704,25.7875 C28.7334,25.7395 28.9024,25.7145 29.0714,25.7145 C29.4534,25.7135 29.8264,25.8345 30.1334,26.0595 L30.1334,26.0565 C30.5904,26.3775 30.8714,26.8945 30.8924,27.4525 L30.9184,28.2715 L29.5614,28.6515 C29.3564,28.6985 29.2294,28.9025 29.2764,29.1065 C29.3234,29.3105 29.5274,29.4375 29.7314,29.3905 C29.7444,29.3875 29.7564,29.3835 29.7694,29.3795 L30.9424,29.0415 L31.2074,36.7745 C31.2084,36.8325 31.1624,36.8815 31.1034,36.8825 C31.0654,36.8835 31.0304,36.8645 31.0104,36.8315 L29.1134,33.5195 L30.1034,33.2345 C30.3074,33.1875 30.4354,32.9845 30.3884,32.7795 C30.3404,32.5755 30.1374,32.4485 29.9334,32.4955 C29.9194,32.4985 29.9074,32.5015 29.8944,32.5055 L28.8014,32.8215 C28.7774,32.8315 28.7524,32.8435 28.7304,32.8595 L27.9074,31.5195 L28.7144,31.2885 C28.9204,31.2285 29.0404,31.0125 28.9804,30.8065 C28.9204,30.5995 28.7054,30.4815 28.4994,30.5415 L27.5084,30.8255 L26.5294,29.1325 L27.2474,28.9285 C27.4514,28.8805 27.5784,28.6775 27.5314,28.4735 C27.4844,28.2695 27.2804,28.1415 27.0764,28.1885 C27.0634,28.1915 27.0504,28.1955 27.0384,28.2005 L26.1724,28.4465 C25.8474,27.5075 26.3444,26.4835 27.2834,26.1585 C27.3154,26.1475 27.3474,26.1375 27.3794,26.1275 M28.4994,23.4575 C28.5374,24.0225 28.4354,24.5875 28.2034,25.1035 C28.1684,24.5535 28.1234,24.0105 28.0774,23.4915 C28.0244,22.8955 27.9634,22.3535 27.9104,21.8785 C28.2324,22.3495 28.4344,22.8905 28.4994,23.4575 M26.4464,25.7375 C25.3244,26.4905 24.9824,27.9865 25.6644,29.1525 L30.3384,37.2105 C30.5374,37.5535 30.9444,37.7175 31.3254,37.6095 C31.7074,37.4995 31.9644,37.1445 31.9514,36.7485 L31.6324,27.4145 C31.5844,26.0265 30.4384,24.9295 29.0484,24.9445 C29.2204,24.4455 29.2914,23.9155 29.2574,23.3885 C29.1014,21.6735 27.6784,20.4335 27.6184,20.3835 C27.4584,20.2485 27.2194,20.2665 27.0834,20.4255 C27.0124,20.5085 26.9814,20.6175 26.9964,20.7255 C26.9964,20.7255 27.1784,22.0115 27.3184,23.5675 C27.3184,23.6965 27.3414,23.8325 27.3524,23.9465 L27.1704,23.5935 C26.4684,22.2015 25.9454,21.0255 25.9414,21.0135 C25.8754,20.8665 25.7234,20.7765 25.5624,20.7905 C25.4044,20.7985 25.2674,20.9045 25.2204,21.0555 C25.1984,21.1315 24.6474,22.9525 25.4214,24.4705 C25.6724,24.9585 26.0214,25.3895 26.4464,25.7375" id="Fill-37" fill="#000000"></path><path d="M20.6376,20.832 C21.2936,21.181 22.8716,22.156 23.2926,23.658 C23.6726,25.017 23.0006,26.496 22.5836,27.232 C22.0706,26.11 21.6586,24.945 21.3546,23.749 L21.2436,23.313 C21.1936,23.109 20.9866,22.986 20.7836,23.038 C20.5796,23.089 20.4566,23.296 20.5086,23.499 L20.6106,23.932 C20.8706,24.946 21.2056,25.94 21.6126,26.906 C20.9096,26.401 20.0946,25.624 19.8106,24.606 C19.3926,23.115 20.2536,21.465 20.6376,20.832 M22.1776,28.15 C22.6416,29.086 23.1746,29.986 23.7716,30.845 L24.0296,31.224 C24.1576,31.39 24.3956,31.42 24.5616,31.291 C24.7146,31.172 24.7536,30.956 24.6516,30.791 L24.3936,30.412 C23.8666,29.655 23.3916,28.864 22.9706,28.044 C23.2886,27.562 24.5686,25.468 24.0136,23.453 C23.3956,21.207 20.7626,20.039 20.6526,19.989 C20.4836,19.923 20.2906,19.984 20.1936,20.138 C20.1206,20.236 18.4596,22.588 19.0776,24.834 C19.5896,26.675 21.4796,27.794 22.1776,28.15" id="Fill-39" fill="#000000"></path><path d="M46.4179,30.8369 C44.6969,30.1509 43.1229,29.1449 41.7779,27.8699 L41.2349,27.3459 C42.8369,26.4729 44.5939,25.9219 46.4069,25.7259 C46.9869,27.4579 47.2189,29.2879 47.0899,31.1099 L46.4179,30.8369 Z M46.1299,33.9969 L46.1259,33.9969 C44.8519,35.9849 42.1839,37.2529 40.1689,37.9699 C40.1519,37.9789 40.1359,37.9879 40.1199,37.9999 C40.0949,38.0129 40.0699,38.0269 40.0479,38.0459 C40.0169,38.0819 39.9869,38.1199 39.9609,38.1589 C39.9499,38.1839 39.9429,38.2089 39.9379,38.2349 C39.9369,38.2539 39.9369,38.2739 39.9379,38.2919 L39.7979,39.4869 L38.9809,39.4869 L38.3829,38.5309 C38.3219,38.4359 38.2219,38.3709 38.1089,38.3569 L35.6659,38.0299 L37.6609,36.8549 C37.7879,36.7799 37.8599,36.6399 37.8479,36.4939 C37.6609,34.3579 37.7069,31.3949 38.9849,29.4019 C39.4099,28.7629 39.9499,28.2079 40.5789,27.7679 L41.2619,28.4199 C42.6679,29.7599 44.3139,30.8199 46.1149,31.5459 L46.9489,31.8839 C46.8099,32.6329 46.5309,33.3499 46.1299,33.9969 L46.1299,33.9969 Z M43.6749,40.2459 C43.6569,40.7549 43.6059,41.2619 43.5229,41.7639 L18.7859,41.7639 C18.7029,41.2619 18.6519,40.7549 18.6339,40.2459 L43.6749,40.2459 Z M26.4739,48.0089 C26.3649,48.1879 26.1329,48.2459 25.9529,48.1379 C25.7059,48.0049 25.5009,47.8919 25.1939,47.7089 C24.8869,47.5269 24.5909,47.3299 24.3069,47.1249 C23.8149,46.7709 23.3539,46.3769 22.9249,45.9479 L22.7919,45.8159 C22.6889,45.7189 22.5939,45.6139 22.5039,45.5049 C22.3689,45.3449 22.3899,45.1059 22.5499,44.9699 C22.7099,44.8349 22.9489,44.8559 23.0849,45.0159 C23.1569,45.1059 23.2359,45.1909 23.3189,45.2699 L23.4639,45.4099 C23.8619,45.8089 24.2929,46.1759 24.7499,46.5069 C25.0159,46.6959 25.3419,46.9119 25.5809,47.0529 C25.8199,47.1929 26.0659,47.3299 26.3139,47.4549 L26.2939,47.4629 C26.3119,47.4699 26.3279,47.4789 26.3439,47.4869 C26.5229,47.5959 26.5819,47.8289 26.4739,48.0089 L26.4739,48.0089 Z M22.1249,44.4419 C21.9489,44.5589 21.7139,44.5109 21.5979,44.3359 C21.4629,44.1369 21.3369,43.9319 21.2179,43.7219 C21.1129,43.5389 21.1759,43.3069 21.3579,43.2019 C21.5399,43.0969 21.7729,43.1599 21.8779,43.3419 C21.9919,43.5369 22.1089,43.7279 22.2309,43.9149 C22.3469,44.0899 22.2999,44.3259 22.1249,44.4419 L22.1249,44.4419 Z M16.7099,30.7609 L17.8069,29.9679 C18.0549,29.7789 18.4019,29.7929 18.6339,30.0019 L19.0479,30.4039 C20.2119,31.5389 21.5819,32.4409 23.0849,33.0609 C23.8249,33.3559 24.4449,33.8899 24.8489,34.5779 C25.7549,36.1299 25.4229,38.1079 24.0599,39.2779 C23.9909,39.3339 23.9209,39.3889 23.8469,39.4409 C23.8379,39.4509 23.8289,39.4619 23.8199,39.4719 L19.4729,39.4719 C19.3319,39.3469 19.1119,39.1079 19.0139,38.9829 L18.9259,38.8879 C18.3969,38.2899 18.0839,37.5329 18.0339,36.7359 C17.9139,35.1159 17.4849,33.5329 16.7719,32.0729 L16.7099,30.7609 Z M15.1319,28.5409 C15.1199,28.5289 15.1069,28.5179 15.0939,28.5069 C15.0769,28.4889 15.0579,28.4729 15.0369,28.4579 L14.9729,28.4279 L14.9039,28.4039 L14.7599,28.4039 L14.6889,28.4279 L14.6389,28.4279 C14.3609,28.5769 14.0199,28.5389 13.7809,28.3329 C13.5909,28.0909 13.6329,27.7399 13.8749,27.5499 C14.0209,27.4359 14.2119,27.3999 14.3889,27.4559 C14.4939,27.4859 14.6069,27.4699 14.6989,27.4109 C14.8489,27.3459 14.9399,27.1929 14.9269,27.0309 C14.9209,26.7239 15.1659,26.4689 15.4739,26.4629 C15.7819,26.4569 16.0359,26.7009 16.0419,27.0099 C16.0449,27.1589 15.9879,27.3039 15.8829,27.4109 C15.7409,27.5579 15.7409,27.7909 15.8829,27.9389 L17.1159,29.5269 L16.3569,30.0889 L15.1319,28.5409 Z M47.0219,25.1879 C46.9619,25.0319 46.8089,24.9339 46.6429,24.9439 C46.3989,24.9439 40.6959,25.3509 38.3519,28.9929 C37.0009,31.0909 36.8979,34.0919 37.0729,36.3229 L34.3339,37.9359 C34.1539,38.0429 34.0959,38.2749 34.2019,38.4559 C34.2619,38.5559 34.3629,38.6219 34.4789,38.6379 L37.8359,39.0849 L38.0869,39.4869 L24.9549,39.4869 C26.2669,38.0389 26.4929,35.9089 25.5169,34.2179 C25.0309,33.3819 24.2799,32.7319 23.3839,32.3689 C21.9719,31.7849 20.6839,30.9369 19.5899,29.8689 L19.1769,29.4669 C18.8019,29.1039 18.2569,28.9789 17.7619,29.1409 L16.6229,27.6729 C16.9869,27.0459 16.7739,26.2419 16.1469,25.8779 C15.5209,25.5139 14.7179,25.7269 14.3539,26.3539 C14.2929,26.4559 14.2479,26.5669 14.2179,26.6829 C13.4949,26.6789 12.9059,27.2619 12.9019,27.9849 C12.9009,28.2799 12.9999,28.5669 13.1819,28.7999 C13.4539,29.1209 13.8569,29.2999 14.2779,29.2849 C14.4209,29.2899 14.5639,29.2749 14.7029,29.2429 L15.8179,30.6889 C15.6349,31.0719 15.6349,31.5199 15.8179,31.9029 L16.0729,32.4189 C16.7459,33.7879 17.1509,35.2729 17.2689,36.7939 C17.3319,37.7579 17.7149,38.6739 18.3569,39.3969 L18.4369,39.4829 L18.2549,39.4829 C18.0449,39.4829 17.8749,39.6529 17.8749,39.8629 C17.8749,46.7869 23.3349,51.6249 31.1539,51.6249 C38.9749,51.6249 44.4339,46.7909 44.4339,39.8669 C44.4339,39.6569 44.2639,39.4869 44.0549,39.4869 L40.5609,39.4869 L40.6399,38.5959 C42.7339,37.8369 45.4089,36.4979 46.7559,34.4219 C49.1119,30.7609 47.1079,25.4109 47.0219,25.1879 L47.0219,25.1879 Z" id="Fill-41" fill="#000000"></path><path d="M40.6776,29.585 C40.5016,29.472 40.2676,29.523 40.1546,29.698 C39.3956,30.859 38.9666,32.419 38.8456,34.327 C38.8316,34.536 38.9906,34.717 39.1996,34.73 L39.2016,34.73 L39.2246,34.73 C39.4256,34.73 39.5916,34.573 39.6046,34.373 C39.7176,32.594 40.1156,31.159 40.7956,30.105 C40.9056,29.928 40.8526,29.696 40.6776,29.585" id="Fill-43" fill="#000000"></path><path d="M44.0526,27.2822 C43.7876,27.1122 43.4366,27.1882 43.2666,27.4532 C43.0956,27.7172 43.1716,28.0692 43.4366,28.2392 C43.7006,28.4102 44.0526,28.3332 44.2226,28.0692 C44.3936,27.8042 44.3176,27.4532 44.0526,27.2822" id="Fill-45" fill="#000000"></path><path d="M32.995,23.9961 L32.995,23.9801 C33.424,22.4631 34.471,21.2331 35.65,20.8691 C35.828,20.8311 35.954,20.6721 35.95,20.4901 C35.958,20.4271 35.97,20.3631 35.984,20.3011 C36.062,20.0171 36.253,19.7791 36.512,19.6411 C36.774,19.4991 37.083,19.4661 37.369,19.5491 C37.97,19.7211 38.32,20.3441 38.154,20.9451 C38.14,20.9821 38.122,21.0171 38.101,21.0521 C38.024,21.1821 37.983,21.3291 37.984,21.4801 C37.984,21.5641 38.013,21.6451 38.063,21.7121 C38.847,22.8611 39.068,24.3041 38.667,25.6351 C38.196,27.3051 36.952,28.5951 35.632,28.7681 C35.444,28.7971 35.307,28.9591 35.309,29.1481 C35.306,29.1761 35.306,29.2041 35.309,29.2311 C35.334,29.6191 35.04,29.9521 34.653,29.9771 C34.266,30.0021 33.932,29.7081 33.908,29.3211 C33.897,29.1531 33.947,28.9861 34.05,28.8521 L34.05,28.8141 C34.069,28.7851 34.084,28.7531 34.095,28.7201 C34.096,28.7031 34.096,28.6861 34.095,28.6701 C34.114,28.6211 34.114,28.5671 34.095,28.5181 C34.089,28.4911 34.08,28.4641 34.068,28.4381 C34.054,28.4181 34.037,28.3991 34.019,28.3821 C34.005,28.3611 33.988,28.3431 33.97,28.3251 C32.919,27.4981 32.513,25.7191 32.995,23.9961 M33.207,28.8641 C32.943,29.6261 33.349,30.4581 34.111,30.7221 C34.873,30.9851 35.705,30.5801 35.969,29.8171 C35.987,29.7641 36.003,29.7091 36.015,29.6531 C36.032,29.5861 36.045,29.5171 36.053,29.4481 C37.57,29.0961 38.876,27.6801 39.395,25.8251 C39.844,24.3331 39.622,22.7211 38.788,21.4041 C38.833,21.3261 38.868,21.2441 38.894,21.1581 C39.174,20.1511 38.587,19.1081 37.582,18.8241 C37.104,18.6951 36.595,18.7581 36.163,18.9991 C35.72,19.2391 35.396,19.6501 35.267,20.1381 C35.267,20.1721 35.267,20.2091 35.241,20.2471 C33.893,20.7481 32.74,22.1221 32.266,23.8091 C31.739,25.7071 32.152,27.6571 33.271,28.7421 C33.248,28.7821 33.226,28.8221 33.207,28.8641" id="Fill-47" fill="#000000"></path><path d="M34.0458,27.2442 C34.2508,27.2042 34.3858,27.0052 34.3458,26.7992 L34.3458,26.7962 C34.0668,25.2372 34.5068,23.6372 35.5438,22.4402 C35.6848,22.2842 35.6718,22.0442 35.5158,21.9032 C35.3588,21.7632 35.1188,21.7752 34.9798,21.9322 C33.7798,23.3062 33.2728,25.1502 33.5978,26.9442 C33.6348,27.1232 33.7938,27.2512 33.9778,27.2472 L34.0458,27.2442 Z" id="Fill-49" fill="#000000"></path><path d="M42.6659,21.2754 C43.0519,21.2754 43.3639,21.5874 43.3639,21.9734 C43.3639,22.3594 43.0519,22.6714 42.6659,22.6714 C42.2799,22.6714 41.9679,22.3594 41.9679,21.9734 C41.9679,21.5874 42.2799,21.2754 42.6659,21.2754 M42.6659,23.4304 C43.4709,23.4304 44.1229,22.7784 44.1229,21.9734 C44.1229,21.1694 43.4709,20.5164 42.6659,20.5164 C41.8609,20.5164 41.2089,21.1694 41.2089,21.9734 C41.2109,22.7774 41.8619,23.4284 42.6659,23.4304" id="Fill-51" fill="#000000"></path><path d="M34.5272,34.2363 C34.1412,34.2363 33.8292,33.9243 33.8292,33.5383 C33.8292,33.1523 34.1412,32.8403 34.5272,32.8403 C34.9132,32.8403 35.2252,33.1523 35.2252,33.5383 C35.2252,33.9243 34.9132,34.2363 34.5272,34.2363 M34.5272,32.0813 C33.7222,32.0813 33.0702,32.7333 33.0702,33.5383 C33.0702,34.3423 33.7222,34.9953 34.5272,34.9953 C35.3322,34.9953 35.9842,34.3423 35.9842,33.5383 C35.9822,32.7343 35.3312,32.0833 34.5272,32.0813" id="Fill-53" fill="#000000"></path><path d="M28.8173,37.6924 C28.8173,38.0784 28.5053,38.3904 28.1193,38.3904 C27.7333,38.3904 27.4213,38.0784 27.4213,37.6924 C27.4213,37.3074 27.7333,36.9944 28.1193,36.9944 C28.5053,36.9944 28.8173,37.3074 28.8173,37.6924 M26.6623,37.6924 C26.6623,38.4974 27.3143,39.1494 28.1193,39.1494 C28.9233,39.1494 29.5763,38.4974 29.5763,37.6924 C29.5763,36.8874 28.9233,36.2354 28.1193,36.2354 C27.3153,36.2384 26.6643,36.8884 26.6623,37.6924" id="Fill-55" fill="#000000"></path><path d="M17.1425,22.71 C17.5285,22.71 17.8405,23.022 17.8405,23.408 C17.8405,23.793 17.5285,24.106 17.1425,24.106 C16.7575,24.106 16.4445,23.793 16.4445,23.408 C16.4445,23.022 16.7575,22.71 17.1425,22.71 M17.1425,24.865 C17.9475,24.865 18.5995,24.213 18.5995,23.408 C18.5995,22.604 17.9475,21.951 17.1425,21.951 C16.3375,21.951 15.6855,22.604 15.6855,23.408 C15.6885,24.212 16.3385,24.862 17.1425,24.865" id="Fill-57" fill="#000000"></path><path d="M20.2636,38.7529 C20.4186,38.6109 20.4296,38.3709 20.2876,38.2169 C19.7556,37.6159 19.4416,36.8549 19.3926,36.0539 C19.3436,35.3959 19.2426,34.7419 19.0926,34.0999 C19.0446,33.8959 18.8396,33.7689 18.6356,33.8169 C18.4316,33.8649 18.3046,34.0699 18.3536,34.2739 C18.4926,34.8769 18.5876,35.4889 18.6336,36.1069 C18.6946,37.0779 19.0786,38.0019 19.7266,38.7289 C19.8676,38.8839 20.1086,38.8949 20.2636,38.7529" id="Fill-59" fill="#000000"></path><path d="M18.5184,33.3721 C18.5184,33.3721 18.5194,33.3711 18.5204,33.3711 L18.5164,33.3711 C18.7144,33.3051 18.8224,33.0901 18.7554,32.8921 L18.7554,32.8901 C18.6794,32.6641 18.5954,32.4401 18.5044,32.2181 C18.4144,32.0281 18.1874,31.9491 17.9984,32.0391 C17.8264,32.1221 17.7424,32.3201 17.8024,32.5021 C17.8864,32.7101 17.9644,32.9201 18.0384,33.1321 C18.1044,33.3311 18.3194,33.4381 18.5184,33.3721" id="Fill-61" fill="#000000"></path></g></g></g></svg>