<svg xmlns="http://www.w3.org/2000/svg" xmlns:xlink="http://www.w3.org/1999/xlink" width="62px" height="62px" viewBox="0 0 62 62"><title>eco-conception</title><desc>Created with Sketch.</desc><defs><polygon id="path-1" points="0 0.4584 61.542 0.4584 61.542 62 0 62"></polygon></defs><g id="Page-1" stroke="none" stroke-width="1" fill="none" fill-rule="evenodd"><g id="eco-conception" transform="translate(0.000000, -1.000000)"><polygon id="Fill-1" fill="#000000" points="10.52 21.392 10.948 21.559 9.651 24.867 4.973 23.033 6.231 19.825 6.659 19.993 5.595 22.705 7.259 23.359 8.207 20.939 8.628 21.104 7.679 23.524 9.416 24.205"></polygon><g id="Group-37" transform="translate(0.000000, 0.542400)"><path d="M8.8462,19.5811 C7.6052,18.7911 7.2922,17.2651 8.1062,15.9871 C8.4982,15.3701 9.0592,14.9441 9.7102,14.8311 L9.8132,15.2971 C9.2422,15.4181 8.8222,15.7451 8.5132,16.2291 C7.8622,17.2531 8.1222,18.5001 9.1272,19.1401 C10.1322,19.7801 11.3722,19.4881 12.0242,18.4661 C12.3322,17.9811 12.4502,17.4611 12.3142,16.8891 L12.7792,16.7851 C12.9522,17.4231 12.8092,18.1151 12.4112,18.7381 C11.6032,20.0101 10.0872,20.3721 8.8462,19.5811" id="Fill-2" fill="#000000"></path><path d="M14.8081,12.0996 C13.9571,11.2556 12.6991,11.2716 11.8491,12.1276 C10.9951,12.9896 10.9861,14.2526 11.8371,15.0976 C12.6881,15.9416 13.9521,15.9206 14.8061,15.0586 C15.6551,14.2036 15.6601,12.9446 14.8081,12.0996 M11.4681,15.4696 C10.4281,14.4386 10.4421,12.8746 11.5131,11.7946 C12.5751,10.7236 14.1371,10.6866 15.1821,11.7226 C16.2271,12.7586 16.2041,14.3226 15.1421,15.3926 C14.0711,16.4736 12.5071,16.4996 11.4681,15.4696" id="Fill-4" fill="#000000"></path><polygon id="Fill-6" fill="#000000" points="15.9419 11.7168 17.4729 10.6238 17.7319 10.9868 16.2009 12.0788"></polygon><path d="M17.7349,9.9522 C17.0719,8.6402 17.5829,7.1672 18.9339,6.4832 C19.5889,6.1542 20.2879,6.0742 20.9049,6.3082 L20.7559,6.7632 C20.2029,6.5752 19.6729,6.6412 19.1609,6.9002 C18.0789,7.4472 17.6659,8.6522 18.2029,9.7162 C18.7399,10.7792 19.9549,11.1632 21.0379,10.6162 C21.5499,10.3572 21.9179,9.9712 22.0919,9.4082 L22.5459,9.5572 C22.3679,10.1932 21.8919,10.7162 21.2319,11.0492 C19.8859,11.7282 18.3979,11.2652 17.7349,9.9522" id="Fill-8" fill="#000000"></path><path d="M26.689,6.5791 C26.392,5.4181 25.303,4.7851 24.135,5.0841 C22.96,5.3851 22.302,6.4651 22.6,7.6271 C22.897,8.7881 23.993,9.4191 25.168,9.1181 C26.336,8.8181 26.987,7.7411 26.689,6.5791 M22.092,7.7571 C21.729,6.3381 22.543,5.0031 24.018,4.6251 C25.478,4.2511 26.839,5.0221 27.205,6.4481 C27.569,7.8741 26.747,9.2031 25.285,9.5771 C23.811,9.9551 22.456,9.1761 22.092,7.7571" id="Fill-10" fill="#000000"></path><polygon id="Fill-12" fill="#000000" points="32.3989 3.7901 32.4889 8.8121 32.0509 8.8211 28.7499 4.8041 28.8229 8.8791 28.2919 8.8881 28.2019 3.8661 28.6389 3.8581 31.9479 7.8751 31.8749 3.8001"></polygon><path d="M33.4429,6.3799 C33.7329,4.9369 35.0449,4.0939 36.5299,4.3929 C37.2479,4.5359 37.8469,4.9049 38.1879,5.4719 L37.7909,5.7359 C37.4709,5.2469 37.0139,4.9729 36.4509,4.8589 C35.2609,4.6199 34.1919,5.3149 33.9579,6.4829 C33.7219,7.6509 34.4419,8.7039 35.6309,8.9429 C36.1949,9.0559 36.7219,8.9789 37.2079,8.6439 L37.4709,9.0409 C36.9389,9.4319 36.2419,9.5489 35.5169,9.4029 C34.0389,9.1069 33.1539,7.8229 33.4429,6.3799" id="Fill-14" fill="#000000"></path><polygon id="Fill-16" fill="#000000" points="41.19 10.8496 41.014 11.2736 37.732 9.9126 39.656 5.2726 42.837 6.5916 42.662 7.0156 39.97 5.9006 39.286 7.5506 41.686 8.5456 41.512 8.9626 39.113 7.9686 38.399 9.6926"></polygon><path d="M46.1509,10.6885 C46.5959,10.0195 46.4089,9.3425 45.5729,8.7865 L44.4619,8.0455 L43.0689,10.1375 L44.1799,10.8765 C45.0169,11.4345 45.7139,11.3455 46.1509,10.6885 M46.5929,10.9835 C46.0009,11.8735 44.9979,11.9815 43.9339,11.2735 L42.8099,10.5255 L41.9319,11.8465 L41.4889,11.5515 L44.2729,7.3705 L45.8389,8.4115 C46.9029,9.1205 47.1889,10.0865 46.5929,10.9835" id="Fill-18" fill="#000000"></path><polygon id="Fill-20" fill="#000000" points="48.8023 11.335 47.5173 10.125 47.8313 9.79 50.7883 12.575 50.4743 12.909 49.1893 11.699 46.0593 15.022 45.6723 14.657"></polygon><polygon id="Fill-22" fill="#000000" points="51.2857 13.2461 51.6287 13.6521 47.7867 16.8911 47.4437 16.4841"></polygon><path d="M52.855,19.9688 C53.88,19.3468 54.169,18.1218 53.543,17.0918 C52.915,16.0538 51.691,15.7398 50.667,16.3608 C49.642,16.9818 49.356,18.2128 49.985,19.2498 C50.61,20.2808 51.831,20.5898 52.855,19.9688 M50.394,15.9128 C51.647,15.1528 53.16,15.5448 53.949,16.8458 C54.731,18.1338 54.388,19.6588 53.13,20.4228 C51.873,21.1858 50.362,20.7838 49.58,19.4958 C48.791,18.1958 49.143,16.6718 50.394,15.9128" id="Fill-24" fill="#000000"></path><polygon id="Fill-26" fill="#000000" points="57.1802 24.6309 52.3942 26.1619 52.2602 25.7449 55.1592 21.4259 51.2762 22.6679 51.1142 22.1619 55.9002 20.6309 56.0342 21.0479 53.1372 25.3749 57.0202 24.1319"></polygon><path d="M4.5493,30.5557 C4.5473,29.6647 5.2683,28.9417 6.1593,28.9397 C7.0503,28.9387 7.7743,29.6597 7.7763,30.5507 C7.7773,31.4417 7.0563,32.1647 6.1643,32.1657 C5.2743,32.1677 4.5503,31.4477 4.5493,30.5557" id="Fill-28" fill="#000000"></path><path d="M53.8013,30.7383 C53.7993,29.8473 54.5213,29.1243 55.4113,29.1223 C56.3033,29.1213 57.0263,29.8423 57.0283,30.7333 C57.0303,31.6243 56.3083,32.3473 55.4173,32.3493 C54.5263,32.3503 53.8023,31.6303 53.8013,30.7383" id="Fill-30" fill="#000000"></path><g id="Group-34"><mask id="mask-2" fill="white"><use xlink:href="#path-1"></use></mask><g id="Clip-33"></g><path d="M30.771,1.6084 C14.438,1.6084 1.151,14.8954 1.151,31.2284 C1.151,47.5614 14.438,60.8484 30.771,60.8484 C47.104,60.8484 60.391,47.5614 60.391,31.2284 C60.391,14.8954 47.104,1.6084 30.771,1.6084 M30.771,62.0004 C13.804,62.0004 0,48.1964 0,31.2284 C0,14.2614 13.804,0.4584 30.771,0.4584 C47.739,0.4584 61.542,14.2614 61.542,31.2284 C61.542,48.1964 47.739,62.0004 30.771,62.0004" id="Fill-32" fill="#000000" mask="url(#mask-2)"></path></g><path d="M32.6343,44.5879 C33.8573,44.8589 35.1323,44.7679 36.3043,44.3269 L39.9533,42.9819 C40.5943,42.7879 41.2713,43.1509 41.4633,43.7919 C41.6393,44.3719 41.3593,44.9919 40.8083,45.2439 L35.0303,47.4439 C34.3093,47.7199 33.5433,47.8599 32.7723,47.8589 L27.6823,47.8589 C26.8383,47.8589 26.0083,47.6459 25.2703,47.2369 L20.1813,44.4099 C19.7663,44.1779 18.8233,43.9939 16.9883,43.8239 L16.9883,36.7548781 L24.6553,36.7549 C26.0303,36.7509 27.3483,37.2959 28.3173,38.2709 L31.1403,41.0929 C31.5753,41.5309 31.5753,42.2399 31.1403,42.6789 C30.6963,43.1019 29.9983,43.1019 29.5543,42.6789 L27.2043,40.3289 C26.9523,40.0949 26.5593,40.1089 26.3243,40.3599 C26.1023,40.5999 26.1023,40.9699 26.3243,41.2089 L28.6743,43.5589 C29.2523,44.1479 30.1003,44.3839 30.8993,44.1819 C30.9473,44.2069 30.9963,44.2269 31.0483,44.2389 L32.6343,44.5879 Z M21.6413,34.2289 C21.6323,34.1839 21.6193,34.1379 21.6003,34.0939 C21.5263,33.9279 21.4593,33.7619 21.3973,33.5919 C22.3533,33.2239 23.1563,32.5449 23.6803,31.6649 C24.6043,32.1519 25.7083,32.1519 26.6323,31.6649 C27.6883,31.0339 28.3353,29.8949 28.3383,28.6639 C28.3383,27.6349 27.6693,26.9659 27.0923,26.3769 C26.5153,25.7869 25.8973,25.1859 25.9803,24.1889 C26.0633,23.1919 25.4903,22.1129 24.3203,21.1839 C26.4063,19.2399 29.1553,18.1649 32.0073,18.1779 C32.3073,18.1779 32.6103,18.1779 32.9123,18.2149 C32.4973,19.1409 32.3983,19.9259 32.6173,20.5439 C32.8303,21.1049 33.1093,21.6369 33.4483,22.1299 C33.9883,22.9599 34.1873,23.3379 33.9963,23.7659 C33.8593,24.0679 33.3233,24.3669 32.8093,24.6539 C31.8463,25.1899 30.5223,25.9199 30.5223,27.4969 C30.4803,28.7989 31.1553,30.0189 32.2813,30.6729 C32.6533,30.8689 33.0663,30.9719 33.4863,30.9719 C34.1393,30.9569 34.7723,30.7369 35.2953,30.3459 C37.3423,28.9039 38.1063,28.8379 38.8033,29.2159 C39.5003,29.5939 41.4603,29.8629 43.3283,29.6639 C43.3083,31.9739 42.5723,34.2209 41.2233,36.0949 C39.9783,35.0319 39.0023,34.5669 38.2313,34.6709 C37.5313,34.7929 36.8553,35.0209 36.2253,35.3479 C35.4323,35.7169 34.9173,35.9329 34.3783,35.7629 C33.3863,35.5179 32.3403,35.6389 31.4313,36.1039 C31.1223,36.2559 30.9953,36.6289 31.1483,36.9379 C31.3013,37.2459 31.6743,37.3719 31.9833,37.2199 C32.6093,36.8999 33.3253,36.8059 34.0133,36.9539 C35.0303,37.2659 35.9023,36.8619 36.7443,36.4729 C37.2663,36.1989 37.8253,36.0059 38.4053,35.8999 C38.5133,35.8999 39.0853,35.8999 40.4473,37.0619 C38.7963,38.9269 36.5743,40.1939 34.1293,40.6649 C34.0533,40.6729 33.9823,40.6949 33.9163,40.7269 C33.4463,40.8069 32.9663,40.8589 32.4793,40.8799 C32.3653,40.6439 32.2133,40.4229 32.0203,40.2299 L29.1973,37.4059 C27.9983,36.1919 26.3633,35.5089 24.6553,35.5099 L22.3273,35.5099 C22.0723,35.0999 21.8433,34.6719 21.6413,34.2289 L21.6413,34.2289 Z M26.1993,27.2569 C26.7563,27.8089 27.0923,28.1739 27.0923,28.6599 C27.0923,29.4399 26.6883,30.1629 26.0263,30.5729 C25.3993,30.9219 24.6183,30.8309 23.7673,30.3039 C23.4753,30.1229 23.0913,30.2149 22.9103,30.5069 C22.8993,30.5259 22.8883,30.5449 22.8793,30.5659 C22.8793,30.5659 22.1443,32.0679 21.0153,32.4039 C20.0523,28.7749 20.9573,24.9019 23.4313,22.0759 C24.1283,22.6149 24.7883,23.3209 24.7263,24.0849 C24.5933,25.6579 25.4863,26.5429 26.1993,27.2569 L26.1993,27.2569 Z M34.5063,21.4409 C34.2163,21.0299 33.9753,20.5869 33.7883,20.1209 C33.6593,19.7639 33.8143,19.1459 34.2033,18.3939 C39.0973,19.3819 42.7743,23.4459 43.2663,28.4149 C41.6063,28.6059 39.8953,28.3859 39.3933,28.1119 C37.9273,27.3149 36.5163,27.9499 34.5733,29.3159 C34.0973,29.7269 33.4253,29.8199 32.8553,29.5569 C32.1443,29.1109 31.7293,28.3179 31.7673,27.4809 C31.7673,26.6959 32.3903,26.2979 33.4273,25.7299 C34.1243,25.3429 34.8433,24.9439 35.1463,24.2639 C35.6363,23.1759 35.0383,22.2539 34.5063,21.4409 L34.5063,21.4409 Z M13.8493,45.3939 L15.7423,45.3939 L15.7423,35.1229 L13.8493,35.1229 L13.8493,45.3939 Z M44.5773,28.9169 C44.3333,24.0119 41.2873,19.8019 36.9323,17.9419 C36.8893,17.9229 36.8463,17.9049 36.8033,17.8879 C36.6743,17.8339 36.5443,17.7829 36.4123,17.7339 C36.3583,17.7129 36.3043,17.6929 36.2493,17.6729 C36.1343,17.6319 36.0183,17.5929 35.9013,17.5539 C35.8343,17.5319 35.7673,17.5099 35.6983,17.4889 C35.6163,17.4639 35.5333,17.4399 35.4503,17.4149 C35.3903,17.3989 35.3283,17.3819 35.2673,17.3649 C35.1343,17.3289 35.0013,17.2959 34.8663,17.2639 L34.7613,17.2399 C34.5803,17.1989 34.3993,17.1619 34.2153,17.1289 L34.2143,17.1289 C34.1273,17.1129 34.0413,17.0959 33.9543,17.0819 L33.9303,17.0819 C33.7783,17.0589 33.6243,17.0379 33.4713,17.0209 C33.4533,17.0179 33.4363,17.0159 33.4183,17.0139 C33.1193,16.9809 32.8183,16.9569 32.5143,16.9439 C32.4873,16.9429 32.4593,16.9419 32.4333,16.9419 C32.2843,16.9359 32.1353,16.9329 31.9863,16.9329 L31.9553,16.9329 C29.0363,16.9279 26.2243,17.9479 23.9973,19.7899 C23.9723,19.8119 23.9463,19.8329 23.9203,19.8549 C23.8823,19.8869 23.8443,19.9179 23.8073,19.9499 C21.3033,22.0909 19.6503,25.1949 19.4213,28.6899 L19.4213,28.6959 C19.4113,28.8399 19.4053,28.9839 19.4003,29.1299 C19.4003,29.1399 19.3993,29.1499 19.3993,29.1579 C19.3953,29.2799 19.3933,29.4019 19.3933,29.5249 C19.3933,29.5389 19.3943,29.5539 19.3943,29.5679 C19.3943,29.6309 19.3963,29.6929 19.3973,29.7549 C19.3983,29.8399 19.4003,29.9249 19.4033,30.0089 C19.4053,30.0719 19.4083,30.1359 19.4123,30.1989 C19.4173,30.2849 19.4223,30.3719 19.4283,30.4579 C19.4323,30.5149 19.4373,30.5709 19.4433,30.6279 C19.4503,30.7249 19.4603,30.8209 19.4713,30.9179 C19.4763,30.9629 19.4813,31.0079 19.4873,31.0539 C19.5003,31.1669 19.5163,31.2799 19.5323,31.3939 C19.5363,31.4219 19.5403,31.4499 19.5453,31.4789 C19.7703,32.9169 20.2383,34.2749 20.9053,35.5099 L16.9883,35.5099 L16.9883,34.5009 C16.9883,34.1569 16.7093,33.8779 16.3653,33.8779 L13.2323,33.8779 C12.8873,33.8779 12.6093,34.1569 12.6093,34.5009 L12.6093,46.0169 C12.6093,46.3599 12.8873,46.6389 13.2323,46.6389 L16.3693,46.6389 C16.7133,46.6389 16.9923,46.3599 16.9923,46.0169 L16.9923,45.0579 C18.9183,45.2479 19.4423,45.4019 19.5823,45.4729 L24.6763,48.2999 C25.5983,48.8099 26.6333,49.0779 27.6863,49.0799 L32.7763,49.0799 C33.6973,49.0799 34.6133,48.9109 35.4743,48.5819 L41.2523,46.4059 C42.5203,45.9219 43.1553,44.5009 42.6703,43.2339 C42.4453,42.6429 41.9993,42.1609 41.4273,41.8899 C40.8263,41.6039 40.1353,41.5749 39.5133,41.8119 L35.8643,43.1809 C34.9173,43.5369 33.8883,43.6109 32.9003,43.3929 L32.2853,43.2559 C32.5323,42.9019 32.6703,42.5009 32.7033,42.0959 C33.2323,42.0669 33.7513,42.0039 34.2603,41.9109 L34.3623,41.9109 C37.9653,41.2129 40.9583,39.0199 42.7553,36.0529 C42.7683,36.0299 42.7813,36.0089 42.7943,35.9859 C42.8653,35.8679 42.9353,35.7479 43.0013,35.6279 C43.0363,35.5639 43.0723,35.4999 43.1063,35.4359 C43.1383,35.3749 43.1703,35.3159 43.2013,35.2539 C43.2613,35.1389 43.3183,35.0219 43.3733,34.9029 C43.3943,34.8609 43.4133,34.8179 43.4333,34.7749 C43.4943,34.6419 43.5543,34.5069 43.6113,34.3709 C43.6193,34.3499 43.6283,34.3289 43.6373,34.3079 C43.7653,33.9939 43.8823,33.6749 43.9863,33.3499 C43.9883,33.3409 43.9903,33.3329 43.9933,33.3249 C44.0453,33.1599 44.0943,32.9939 44.1393,32.8259 L44.1483,32.7969 C44.1933,32.6269 44.2353,32.4569 44.2743,32.2839 C44.2743,32.2819 44.2753,32.2789 44.2763,32.2759 C44.3533,31.9299 44.4153,31.5769 44.4633,31.2209 C44.4653,31.2089 44.4673,31.1969 44.4683,31.1849 C44.4903,31.0189 44.5093,30.8509 44.5243,30.6819 C44.5273,30.6569 44.5293,30.6329 44.5303,30.6089 C44.5443,30.4439 44.5563,30.2789 44.5643,30.1119 C44.5653,30.0889 44.5663,30.0659 44.5673,30.0409 C44.5733,29.8699 44.5773,29.6979 44.5773,29.5249 L44.5773,29.5239 L44.5773,28.9169 Z" id="Fill-35" fill="#000000"></path></g></g></g></svg>