<svg xmlns="http://www.w3.org/2000/svg" xmlns:xlink="http://www.w3.org/1999/xlink" width="62px" height="62px" viewBox="0 0 62 62"><title>industrie</title><desc>Created with Sketch.</desc><defs><polygon id="path-1" points="0.0005 0.458 61.542 0.458 61.542 62 0.0005 62"></polygon><polygon id="path-3" points="0 62 61.542 62 61.542 0.458 0 0.458"></polygon></defs><g id="Page-1" stroke="none" stroke-width="1" fill="none" fill-rule="evenodd"><g id="industrie" transform="translate(0.000000, -1.000000)"><polygon id="Fill-1" fill="#000000" points="11.751 12.282 12.13 11.911 15.647 15.5 15.267 15.872"></polygon><polygon id="Fill-2" fill="#000000" points="17.25 7.9509 20.104 12.0859 19.743 12.3349 14.77 10.8139 17.085 14.1699 16.647 14.4709 13.794 10.3359 14.154 10.0869 19.135 11.6029 16.818 8.2479"></polygon><g id="Group-26" transform="translate(0.000000, 0.542400)"><path d="M23.0273,9.7952 C24.2813,9.3362 24.7993,8.2442 24.3843,7.1112 C23.9693,5.9792 22.8703,5.4802 21.6153,5.9392 L20.2193,6.4492 L21.6313,10.3062 L23.0273,9.7952 Z M19.5623,6.2002 L21.4843,5.4972 C22.9953,4.9442 24.3683,5.5422 24.8773,6.9322 C25.3843,8.3202 24.7223,9.6642 23.2133,10.2172 L21.2913,10.9202 L19.5623,6.2002 Z" id="Fill-3" fill="#000000"></path><path d="M26.3799,7.0296 L26.0919,4.1666 L26.6209,4.1126 L26.9049,6.9556 C27.0249,8.1406 27.6369,8.6286 28.6079,8.5306 C29.5859,8.4326 30.0889,7.8346 29.9699,6.6476 L29.6849,3.8056 L30.1989,3.7546 L30.4859,6.6186 C30.6299,8.0536 29.9339,8.8736 28.6539,9.0026 C27.3759,9.1306 26.5239,8.4666 26.3799,7.0296" id="Fill-5" fill="#000000"></path><path d="M31.6387,8.1722 L31.8917,7.7902 C32.2077,8.1802 32.8147,8.5102 33.4697,8.5852 C34.4057,8.6932 34.8567,8.3472 34.9127,7.8552 C35.0707,6.4852 31.8997,6.9742 32.1117,5.1262 C32.1957,4.3912 32.8387,3.8212 34.1097,3.9672 C34.6727,4.0322 35.2397,4.2642 35.6067,4.5882 L35.3797,4.9872 C34.9837,4.6602 34.4997,4.4682 34.0577,4.4172 C33.1447,4.3122 32.6917,4.6722 32.6337,5.1712 C32.4767,6.5412 35.6467,6.0672 35.4377,7.8862 C35.3537,8.6212 34.6957,9.1822 33.4187,9.0342 C32.6697,8.9482 31.9647,8.6002 31.6387,8.1722" id="Fill-7" fill="#000000"></path><polygon id="Fill-9" fill="#000000" points="38.3779 5.3538 36.6889 4.8388 36.8219 4.3998 40.7089 5.5828 40.5749 6.0228 38.8859 5.5078 37.5569 9.8748 37.0479 9.7208"></polygon><path d="M44.3652,9.3656 C44.7482,8.6586 44.5002,8.0016 43.6162,7.5226 L42.4422,6.8866 L41.2412,9.1016 L42.4162,9.7386 C43.3002,10.2176 43.9892,10.0596 44.3652,9.3656 L44.3652,9.3656 Z M42.8172,12.2836 L42.5762,10.3156 C42.4562,10.2666 42.3392,10.2116 42.2132,10.1426 L41.0262,9.4996 L40.2662,10.9016 L39.8002,10.6476 L42.1942,6.2296 L43.8472,7.1256 C44.9712,7.7346 45.3452,8.6726 44.8322,9.6186 C44.4562,10.3126 43.8262,10.6006 43.0692,10.4606 L43.3282,12.5596 L42.8172,12.2836 Z" id="Fill-11" fill="#000000"></path><polygon id="Fill-13" fill="#000000" points="47.1211 9.2318 47.5431 9.5548 44.4881 13.5438 44.0661 13.2218"></polygon><polygon id="Fill-15" fill="#000000" points="48.4424 16.682 48.1114 17.001 45.6424 14.445 49.2584 10.954 51.6524 13.434 51.3214 13.752 49.2964 11.656 48.0104 12.897 49.8164 14.767 49.4904 15.08 47.6854 13.211 46.3424 14.507"></polygon><path d="M4.5488,30.556 C4.5468,29.665 5.2688,28.942 6.1588,28.94 C7.0508,28.938 7.7748,29.66 7.7758,30.55 C7.7778,31.442 7.0558,32.165 6.1648,32.166 C5.2748,32.168 4.5508,31.447 4.5488,30.556" id="Fill-17" fill="#000000"></path><path d="M53.8008,30.7386 C53.7998,29.8476 54.5208,29.1246 55.4118,29.1226 C56.3028,29.1216 57.0268,29.8426 57.0288,30.7336 C57.0298,31.6246 56.3088,32.3476 55.4168,32.3486 C54.5268,32.3506 53.8028,31.6306 53.8008,30.7386" id="Fill-19" fill="#000000"></path><g id="Group-23"><mask id="mask-2" fill="white"><use xlink:href="#path-1"></use></mask><g id="Clip-22"></g><path d="M30.7715,1.6087 C14.4385,1.6087 1.1515,14.8957 1.1515,31.2287 C1.1515,47.5617 14.4385,60.8487 30.7715,60.8487 C47.1045,60.8487 60.3915,47.5617 60.3915,31.2287 C60.3915,14.8957 47.1045,1.6087 30.7715,1.6087 M30.7715,62.0007 C13.8035,62.0007 0.0005,48.1957 0.0005,31.2287 C0.0005,14.2617 13.8035,0.4577 30.7715,0.4577 C47.7385,0.4577 61.5425,14.2617 61.5425,31.2287 C61.5425,48.1957 47.7385,62.0007 30.7715,62.0007" id="Fill-21" fill="#000000" mask="url(#mask-2)"></path></g><mask id="mask-4" fill="white"><use xlink:href="#path-3"></use></mask><g id="Clip-25"></g><path d="M16.718,42.021 L26.26,42.021 L26.26,40.745 L16.718,40.745 L16.718,42.021 Z M16.718,39.82 L26.26,39.82 L26.26,38.545 L16.718,38.545 L16.718,39.82 Z M16.718,37.632 L26.26,37.632 L26.26,36.344 L16.718,36.344 L16.718,37.632 Z M16.718,35.431 L26.26,35.431 L26.26,34.354 L16.718,34.354 L16.718,35.431 Z M40.659,34.459 L42.977,34.459 L42.977,33.779 L40.659,33.779 L40.659,34.459 Z M37.007,34.459 L39.324,34.459 L39.324,33.779 L37.007,33.779 L37.007,34.459 Z M33.354,34.459 L35.672,34.459 L35.672,33.779 L33.354,33.779 L33.354,34.459 Z M26.025,32.188 L28.343,32.188 L28.343,31.509 L26.025,31.509 L26.025,32.188 Z M22.373,32.188 L24.69,32.188 L24.69,31.509 L22.373,31.509 L22.373,32.188 Z M18.72,32.188 L21.038,32.188 L21.038,31.509 L18.72,31.509 L18.72,32.188 Z M15.067,32.188 L17.385,32.188 L17.385,31.509 L15.067,31.509 L15.067,32.188 Z M30.498,31.099 L45.835,31.099 L45.835,42.806 L39.841,42.806 L39.841,37.421 L36.504,37.421 L36.504,42.806 L30.498,42.806 L30.498,31.099 Z M29.55,24.882 L29.55,42.818 L27.196,42.818 L27.196,33.885 C27.196,33.626 26.986,33.417 26.728,33.417 L16.25,33.417 C15.991,33.417 15.781,33.626 15.781,33.885 L15.781,42.818 L13.429,42.818 L13.429,30.42 L29.549,24.882 L29.55,24.882 Z M41.128,20.913 L42.79,20.913 L43.493,30.162 L40.426,30.162 L41.128,20.913 Z M34.385,20.913 L36.047,20.913 L36.749,30.162 L33.682,30.162 L34.385,20.913 Z M33.857,19.977 C33.648,20.019 33.495,20.198 33.483,20.41 L32.745,30.162 L30.486,30.162 L30.486,24.227 C30.486,23.968 30.276,23.758 30.019,23.757 C30.01,23.757 30.002,23.758 29.994,23.758 C29.95,23.764 29.906,23.776 29.865,23.793 L12.809,29.638 C12.618,29.702 12.491,29.882 12.492,30.082 L12.492,43.277 C12.492,43.535 12.702,43.744 12.961,43.744 L30.018,43.744 C30.065,43.748 30.112,43.744 30.158,43.734 L46.303,43.734 C46.562,43.734 46.771,43.524 46.771,43.265 L46.771,30.621 C46.771,30.363 46.562,30.153 46.303,30.153 L44.43,30.153 L43.692,20.401 C43.674,20.156 43.47,19.967 43.224,19.967 L40.695,19.967 C40.664,19.964 40.633,19.964 40.602,19.967 C40.393,20.01 40.238,20.188 40.227,20.401 L39.489,30.153 L37.687,30.153 L36.949,20.401 C36.931,20.156 36.726,19.967 36.48,19.967 L33.952,19.967 C33.921,19.964 33.89,19.964 33.858,19.967 L33.857,19.977 Z" id="Fill-24" fill="#000000" mask="url(#mask-4)"></path></g></g></g></svg>