<?xml version="1.0" encoding="UTF-8"?>
<svg width="47px" height="24px" viewBox="0 0 47 24" version="1.1" xmlns="http://www.w3.org/2000/svg" xmlns:xlink="http://www.w3.org/1999/xlink">
    <!-- Generator: Sketch 53.2 (72643) - https://sketchapp.com -->
    <title>Sorel logo noir</title>
    <desc>Created with Sketch.</desc>
    <defs>
        <polygon id="path-1" points="0.0001 0.2595 46.69 0.2595 46.69 23.9995 0.0001 23.9995"></polygon>
    </defs>
    <g id="Page-1" stroke="none" stroke-width="1" fill="none" fill-rule="evenodd">
        <g id="Sorel-logo-noir" transform="translate(0.000000, -1.000000)">
            <g id="Group-3" transform="translate(0.000000, 0.740600)">
                <mask id="mask-2" fill="white">
                    <use xlink:href="#path-1"></use>
                </mask>
                <g id="Clip-2"></g>
                <path d="M42.8851,18.4265 C42.8851,21.0305 40.7671,23.1485 38.1641,23.1485 L8.4641,23.1485 C5.8621,23.1485 3.7431,21.0305 3.7431,18.4265 L3.7431,5.8325 C3.7431,3.2295 5.8621,1.1125 8.4641,1.1125 L38.1641,1.1125 C40.7671,1.1125 42.8851,3.2295 42.8851,5.8325 L42.8851,18.4265 Z M46.1421,7.9345 L43.7381,6.8845 L43.7381,5.8325 C43.7381,2.7595 41.2381,0.2595 38.1641,0.2595 L8.4641,0.2595 C5.3921,0.2595 2.8911,2.7595 2.8911,5.8325 L2.8911,6.9105 L0.5481,7.9345 C0.2151,8.0785 0.0001,8.4075 0.0001,8.7705 L0.0001,12.0695 L0.0001,12.1905 L0.0001,15.4885 C0.0001,15.8515 0.2151,16.1805 0.5481,16.3255 L2.8911,17.3485 L2.8911,18.4265 C2.8911,21.4995 5.3921,23.9995 8.4641,23.9995 L38.1641,23.9995 C41.2381,23.9995 43.7381,21.4995 43.7381,18.4265 L43.7381,17.3745 L46.1421,16.3255 C46.4751,16.1805 46.6901,15.8515 46.6901,15.4885 L46.6901,12.1905 L46.6901,12.0695 L46.6901,8.7705 C46.6901,8.4075 46.4751,8.0785 46.1421,7.9345 L46.1421,7.9345 Z" id="Fill-1" fill="#1E1E1C" mask="url(#mask-2)"></path>
            </g>
            <path d="M9.2855,11.5109 C9.2855,11.1879 9.5625,10.9289 10.3305,10.9289 C10.8945,10.9289 11.5055,11.0949 12.1245,11.4279 L12.6885,10.0689 C12.0515,9.6989 11.1815,9.5039 10.3405,9.5039 C8.4165,9.5039 7.4735,10.4479 7.4735,11.6039 C7.4735,14.0079 11.1535,13.2589 11.1535,14.2849 C11.1535,14.5999 10.8575,14.8129 10.0995,14.8129 C9.3505,14.8129 8.5365,14.5529 7.9635,14.1739 L7.3625,15.5249 C7.9735,15.9489 9.0265,16.2369 10.0905,16.2369 C12.0145,16.2369 12.9575,15.2749 12.9575,14.1469 C12.9575,11.7609 9.2855,12.4999 9.2855,11.5109" id="Fill-4" fill="#1E1E1C"></path>
            <path d="M17.0629,14.7198 C16.0829,14.7198 15.3149,13.9898 15.3149,12.8698 C15.3149,11.7508 16.0829,11.0208 17.0629,11.0208 C18.0429,11.0208 18.8099,11.7508 18.8099,12.8698 C18.8099,13.9898 18.0429,14.7198 17.0629,14.7198 M17.0629,9.5038 C14.9919,9.5038 13.4649,10.9288 13.4649,12.8698 C13.4649,14.8128 14.9919,16.2368 17.0629,16.2368 C19.1339,16.2368 20.6599,14.8128 20.6599,12.8698 C20.6599,10.9288 19.1339,9.5038 17.0629,9.5038" id="Fill-6" fill="#1E1E1C"></path>
            <path d="M24.4701,12.9718 L23.4521,12.9718 L23.4521,11.0758 L24.4701,11.0758 C25.2281,11.0758 25.6071,11.4278 25.6071,12.0288 C25.6071,12.6198 25.2281,12.9718 24.4701,12.9718 M27.4561,12.0288 C27.4561,10.5488 26.3471,9.6338 24.5801,9.6338 L21.6211,9.6338 L21.6211,16.1068 L23.4521,16.1068 L23.4521,14.3868 L24.4511,14.3868 L25.6251,16.1068 L27.5861,16.1068 L26.1901,14.0728 C26.9941,13.6838 27.4561,12.9818 27.4561,12.0288" id="Fill-8" fill="#1E1E1C"></path>
            <polygon id="Fill-10" fill="#1E1E1C" points="30.2767 13.5079 33.1527 13.5079 33.1527 12.1399 30.2767 12.1399 30.2767 11.0489 33.5417 11.0489 33.5417 9.6339 28.4647 9.6339 28.4647 16.1069 33.6617 16.1069 33.6617 14.6919 30.2767 14.6919"></polygon>
            <polygon id="Fill-12" fill="#1E1E1C" points="36.5101 9.6339 34.6791 9.6339 34.6791 16.1069 39.5981 16.1069 39.5981 14.6549 36.5101 14.6549"></polygon>
        </g>
    </g>
</svg>